<?xml version="1.0" encoding="utf-8"?>
<!-- Generator: Adobe Illustrator 24.0.2, SVG Export Plug-In . SVG Version: 6.00 Build 0)  -->
<svg version="1.1" id="Layer_1" xmlns="http://www.w3.org/2000/svg" xmlns:xlink="http://www.w3.org/1999/xlink" x="0px" y="0px"
	 width="40px" height="40px" viewBox="0 0 40 40" style="enable-background:new 0 0 40 40;" xml:space="preserve">
<style type="text/css">
	.st0{fill:#FFFFFF;}
</style>
<g>
	<path class="st0" d="M19.7,9.8c-5.5,0-10,4.5-10.1,10.2c0,5.6,4.4,10.2,10,10.2c5.6,0,10.1-4.5,10.1-10.2
		C29.8,14.4,25.3,9.8,19.7,9.8z"/>
	<path class="st0" d="M30.1,0.1L9.4,0C4.3,0,0.1,4.2,0.1,9.4L0,30.4c0,5.2,4.1,9.5,9.3,9.5L30,40c5.1,0,9.3-4.2,9.3-9.4l0.1-21
		C39.4,4.4,35.3,0.1,30.1,0.1z M19.6,32.8C12.6,32.8,7,27,7,19.9c0-7.1,5.7-12.9,12.7-12.8c7,0,12.6,5.8,12.6,12.9
		C32.3,27.2,26.6,32.9,19.6,32.8z M32.2,9.6c-1.1,0-2-0.9-2-2.1c0-1.2,0.9-2.1,2.1-2.1s2,0.9,2,2.1C34.2,8.6,33.3,9.6,32.2,9.6z"/>
</g>
</svg>
